<svg width="48" height="48" viewBox="0 0 48 48" fill="none" xmlns="http://www.w3.org/2000/svg">
<mask id="mask0_397_628" style="mask-type:luminance" maskUnits="userSpaceOnUse" x="0" y="0" width="48" height="48">
<path d="M48 0H0V48H48V0Z" fill="white"/>
</mask>
<g mask="url(#mask0_397_628)">
<path d="M24 48C37.2548 48 48 37.2548 48 24C48 10.7452 37.2548 0 24 0C10.7452 0 0 10.7452 0 24C0 37.2548 10.7452 48 24 48Z" fill="gray"/>
<path d="M33.0962 23.8153L38.0045 21.3695L39.6964 16.1764L36.3126 13.7139H13.7812L8.57129 17.5835H35.0562L33.649 21.9391H23.0282L22.0064 25.1219H32.6271L29.6453 34.2853L34.6206 31.8227L36.3963 26.3281L33.0627 23.8823L33.0962 23.8153Z" fill="#595956"/>
<path d="M16.0596 30.3488L19.1252 20.8002L15.7246 18.2539L10.6152 34.2855H29.6455L30.9186 30.3488H16.0596Z" fill="#595956"/>
</g>
</svg>
